<svg width="1000" height="331" viewBox="0 0 1000 331" fill="none" xmlns="http://www.w3.org/2000/svg">
<rect y="155" width="500" height="176" fill="#D9D9D9"/>
<rect x="500" y="155" width="500" height="176" fill="#D9D9D9"/>
<path d="M100 0H900V176H100V0Z" fill="#212D40"/>
<path d="M204.234 83.2188C202.922 83.2188 201.672 82.9688 200.484 82.4688C199.328 81.9375 198.312 81.25 197.438 80.4062C196.562 79.5312 195.875 78.5156 195.375 77.3594C194.875 76.1719 194.625 74.9219 194.625 73.6094V54.3906C194.625 53.0781 194.875 51.8438 195.375 50.6875C195.875 49.5 196.562 48.4844 197.438 47.6406C198.312 46.7656 199.328 46.0781 200.484 45.5781C201.672 45.0469 202.922 44.7812 204.234 44.7812H236.859C238.172 44.7812 239.406 45.0469 240.562 45.5781C241.75 46.0781 242.781 46.7656 243.656 47.6406C244.531 48.4844 245.219 49.5 245.719 50.6875C246.219 51.8438 246.469 53.0781 246.469 54.3906V63.0625H236.859V54.3906H204.234V73.6094H236.859C238.172 73.6094 239.406 73.8594 240.562 74.3594C241.75 74.8594 242.781 75.5469 243.656 76.4219C244.531 77.2969 245.219 78.3281 245.719 79.5156C246.219 80.6719 246.469 81.9062 246.469 83.2188V102.391C246.469 103.703 246.219 104.953 245.719 106.141C245.219 107.297 244.531 108.312 243.656 109.188C242.781 110.062 241.75 110.75 240.562 111.25C239.406 111.75 238.172 112 236.859 112H203.297C201.984 112 200.734 111.75 199.547 111.25C198.391 110.75 197.375 110.062 196.5 109.188C195.625 108.312 194.938 107.297 194.438 106.141C193.938 104.953 193.688 103.703 193.688 102.391V93.7656H203.297V102.391H236.859V83.2188H204.234ZM262.875 62.0781H272.062V102.766H297.797V62.0781H307.031V112H297.797V103.562C297.703 104.719 297.391 105.812 296.859 106.844C296.328 107.875 295.641 108.781 294.797 109.562C293.984 110.312 293.047 110.906 291.984 111.344C290.922 111.781 289.797 112 288.609 112H272.062C270.812 112 269.625 111.766 268.5 111.297C267.375 110.797 266.391 110.141 265.547 109.328C264.734 108.484 264.078 107.5 263.578 106.375C263.109 105.25 262.875 104.047 262.875 102.766V62.0781ZM366.562 102.766C366.562 104.047 366.312 105.25 365.812 106.375C365.344 107.5 364.688 108.484 363.844 109.328C363.031 110.141 362.062 110.797 360.938 111.297C359.812 111.766 358.609 112 357.328 112H331.594C330.344 112 329.156 111.766 328.031 111.297C326.906 110.797 325.922 110.141 325.078 109.328C324.266 108.484 323.609 107.5 323.109 106.375C322.641 105.25 322.406 104.047 322.406 102.766V42.8594H331.594V70.8906C331.656 69.6719 331.938 68.5312 332.438 67.4688C332.938 66.375 333.594 65.4375 334.406 64.6562C335.25 63.8438 336.219 63.2188 337.312 62.7812C338.406 62.3125 339.578 62.0781 340.828 62.0781H357.328C358.609 62.0781 359.812 62.3281 360.938 62.8281C362.062 63.2969 363.031 63.9531 363.844 64.7969C364.688 65.6094 365.344 66.5781 365.812 67.7031C366.312 68.8281 366.562 70.0312 366.562 71.3125V102.766ZM331.594 71.3125V102.766H357.328V71.3125H331.594ZM412.078 102.766V91.1875H390.188C388.906 91.1875 387.703 90.9531 386.578 90.4844C385.453 89.9844 384.469 89.3281 383.625 88.5156C382.812 87.6719 382.156 86.6875 381.656 85.5625C381.188 84.4375 380.953 83.2344 380.953 81.9531V71.3125C380.953 70.0312 381.188 68.8281 381.656 67.7031C382.156 66.5781 382.812 65.6094 383.625 64.7969C384.469 63.9531 385.453 63.2969 386.578 62.8281C387.703 62.3281 388.906 62.0781 390.188 62.0781H419.391V71.3125H390.188V81.9531H412.078C413.359 81.9531 414.547 82.2031 415.641 82.7031C416.766 83.1719 417.75 83.8281 418.594 84.6719C419.438 85.4844 420.094 86.4531 420.562 87.5781C421.062 88.7031 421.312 89.9062 421.312 91.1875V102.766C421.312 104.047 421.062 105.25 420.562 106.375C420.094 107.5 419.438 108.484 418.594 109.328C417.75 110.141 416.766 110.797 415.641 111.297C414.547 111.766 413.359 112 412.078 112H380.953V102.766H412.078ZM444.938 71.3125V102.766H468.75V94.3281H477.984V102.766C477.984 104.047 477.734 105.25 477.234 106.375C476.766 107.5 476.109 108.484 475.266 109.328C474.453 110.141 473.484 110.797 472.359 111.297C471.234 111.766 470.031 112 468.75 112H444.938C443.688 112 442.5 111.766 441.375 111.297C440.25 110.797 439.266 110.141 438.422 109.328C437.609 108.484 436.953 107.5 436.453 106.375C435.984 105.25 435.75 104.047 435.75 102.766V71.3125C435.75 70.0312 435.984 68.8281 436.453 67.7031C436.953 66.5781 437.609 65.6094 438.422 64.7969C439.266 63.9531 440.25 63.2969 441.375 62.8281C442.5 62.3281 443.688 62.0781 444.938 62.0781H468.75C470.031 62.0781 471.234 62.3281 472.359 62.8281C473.484 63.2969 474.453 63.9531 475.266 64.7969C476.109 65.6094 476.766 66.5781 477.234 67.7031C477.734 68.8281 477.984 70.0312 477.984 71.3125V79.75H468.75V71.3125H444.938ZM502.594 71.3125V112H493.406V62.0781H502.594V70.8906C502.656 69.6719 502.938 68.5312 503.438 67.4688C503.938 66.375 504.594 65.4375 505.406 64.6562C506.25 63.8438 507.219 63.2188 508.312 62.7812C509.406 62.3125 510.578 62.0781 511.828 62.0781H521.625C522.906 62.0781 524.094 62.3281 525.188 62.8281C526.312 63.2969 527.297 63.9531 528.141 64.7969C528.984 65.6094 529.641 66.5781 530.109 67.7031C530.609 68.8281 530.859 70.0312 530.859 71.3125V79.75H521.625V71.3125H502.594ZM552.047 62.0781V112H542.812V62.0781H552.047ZM542.344 42.8594H552.516V52.4688H542.344V42.8594ZM612.094 102.766C612.094 104.047 611.844 105.25 611.344 106.375C610.875 107.5 610.219 108.484 609.375 109.328C608.562 110.141 607.594 110.797 606.469 111.297C605.344 111.766 604.141 112 602.859 112H577.125V132.156H567.938V62.0781H577.125V70.5156C577.219 69.3281 577.531 68.2344 578.062 67.2344C578.594 66.2031 579.266 65.3125 580.078 64.5625C580.891 63.7812 581.828 63.1719 582.891 62.7344C583.984 62.2969 585.141 62.0781 586.359 62.0781H602.859C604.141 62.0781 605.344 62.3281 606.469 62.8281C607.594 63.2969 608.562 63.9531 609.375 64.7969C610.219 65.6094 610.875 66.5781 611.344 67.7031C611.844 68.8281 612.094 70.0312 612.094 71.3125V102.766ZM602.859 102.766V71.3125H577.125V102.766H602.859ZM624.562 62.0781H636.75V46.7031H645.984V62.0781H662.391V71.3125H645.984V102.766H662.391V112H645.984C644.734 112 643.547 111.766 642.422 111.297C641.297 110.797 640.312 110.141 639.469 109.328C638.625 108.484 637.953 107.5 637.453 106.375C636.984 105.25 636.75 104.047 636.75 102.766V71.3125H624.562V62.0781ZM687.516 62.0781V112H678.281V62.0781H687.516ZM677.812 42.8594H687.984V52.4688H677.812V42.8594ZM746.578 102.766C746.578 104.047 746.328 105.25 745.828 106.375C745.359 107.5 744.703 108.484 743.859 109.328C743.047 110.141 742.078 110.797 740.953 111.297C739.859 111.766 738.672 112 737.391 112H712.594C711.344 112 710.156 111.766 709.031 111.297C707.906 110.797 706.922 110.141 706.078 109.328C705.266 108.484 704.609 107.5 704.109 106.375C703.641 105.25 703.406 104.047 703.406 102.766V71.3125C703.406 70.0312 703.641 68.8281 704.109 67.7031C704.609 66.5781 705.266 65.6094 706.078 64.7969C706.922 63.9531 707.906 63.2969 709.031 62.8281C710.156 62.3281 711.344 62.0781 712.594 62.0781H737.391C738.672 62.0781 739.859 62.3281 740.953 62.8281C742.078 63.2969 743.047 63.9531 743.859 64.7969C744.703 65.6094 745.359 66.5781 745.828 67.7031C746.328 68.8281 746.578 70.0312 746.578 71.3125V102.766ZM712.594 71.3125V102.766H737.391V71.3125H712.594ZM806.156 112H796.922V71.3125H771.188V112H762V62.0781H771.188V70.8906C771.25 69.6719 771.531 68.5312 772.031 67.4688C772.531 66.375 773.188 65.4375 774 64.6562C774.844 63.8438 775.812 63.2188 776.906 62.7812C778 62.3125 779.172 62.0781 780.422 62.0781H796.922C798.203 62.0781 799.406 62.3281 800.531 62.8281C801.656 63.2969 802.625 63.9531 803.438 64.7969C804.281 65.6094 804.938 66.5781 805.406 67.7031C805.906 68.8281 806.156 70.0312 806.156 71.3125V112Z" fill="white"/>
<path d="M54.625 209.391C54.625 208.078 54.875 206.844 55.375 205.688C55.875 204.5 56.5625 203.484 57.4375 202.641C58.3125 201.766 59.3281 201.078 60.4844 200.578C61.6719 200.047 62.9219 199.781 64.2344 199.781H100.703C102.016 199.781 103.25 200.047 104.406 200.578C105.594 201.078 106.625 201.766 107.5 202.641C108.375 203.484 109.062 204.5 109.562 205.688C110.062 206.844 110.312 208.078 110.312 209.391V218.062H100.703V209.391H64.2344V257.391H100.703V248.766H110.312V257.391C110.312 258.703 110.062 259.953 109.562 261.141C109.062 262.297 108.375 263.312 107.5 264.188C106.625 265.062 105.594 265.75 104.406 266.25C103.25 266.75 102.016 267 100.703 267H64.2344C62.9219 267 61.6719 266.75 60.4844 266.25C59.3281 265.75 58.3125 265.062 57.4375 264.188C56.5625 263.312 55.875 262.297 55.375 261.141C54.875 259.953 54.625 258.703 54.625 257.391V209.391ZM167.922 257.766C167.922 259.047 167.672 260.25 167.172 261.375C166.703 262.5 166.047 263.484 165.203 264.328C164.391 265.141 163.422 265.797 162.297 266.297C161.203 266.766 160.016 267 158.734 267H133.938C132.688 267 131.5 266.766 130.375 266.297C129.25 265.797 128.266 265.141 127.422 264.328C126.609 263.484 125.953 262.5 125.453 261.375C124.984 260.25 124.75 259.047 124.75 257.766V226.312C124.75 225.031 124.984 223.828 125.453 222.703C125.953 221.578 126.609 220.609 127.422 219.797C128.266 218.953 129.25 218.297 130.375 217.828C131.5 217.328 132.688 217.078 133.938 217.078H158.734C160.016 217.078 161.203 217.328 162.297 217.828C163.422 218.297 164.391 218.953 165.203 219.797C166.047 220.609 166.703 221.578 167.172 222.703C167.672 223.828 167.922 225.031 167.922 226.312V257.766ZM133.938 226.312V257.766H158.734V226.312H133.938ZM227.5 267H218.266V226.312H192.531V267H183.344V217.078H192.531V225.891C192.594 224.672 192.875 223.531 193.375 222.469C193.875 221.375 194.531 220.438 195.344 219.656C196.188 218.844 197.156 218.219 198.25 217.781C199.344 217.312 200.516 217.078 201.766 217.078H218.266C219.547 217.078 220.75 217.328 221.875 217.828C223 218.297 223.969 218.953 224.781 219.797C225.625 220.609 226.281 221.578 226.75 222.703C227.25 223.828 227.5 225.031 227.5 226.312V267ZM239.969 217.078H252.156V201.703H261.391V217.078H277.797V226.312H261.391V257.766H277.797V267H261.391C260.141 267 258.953 266.766 257.828 266.297C256.703 265.797 255.719 265.141 254.875 264.328C254.031 263.484 253.359 262.5 252.859 261.375C252.391 260.25 252.156 259.047 252.156 257.766V226.312H239.969V217.078ZM302.406 226.312V267H293.219V217.078H302.406V225.891C302.469 224.672 302.75 223.531 303.25 222.469C303.75 221.375 304.406 220.438 305.219 219.656C306.062 218.844 307.031 218.219 308.125 217.781C309.219 217.312 310.391 217.078 311.641 217.078H321.438C322.719 217.078 323.906 217.328 325 217.828C326.125 218.297 327.109 218.953 327.953 219.797C328.797 220.609 329.453 221.578 329.922 222.703C330.422 223.828 330.672 225.031 330.672 226.312V234.75H321.438V226.312H302.406ZM385.328 257.766C385.328 259.047 385.078 260.25 384.578 261.375C384.109 262.5 383.453 263.484 382.609 264.328C381.797 265.141 380.828 265.797 379.703 266.297C378.609 266.766 377.422 267 376.141 267H351.344C350.094 267 348.906 266.766 347.781 266.297C346.656 265.797 345.672 265.141 344.828 264.328C344.016 263.484 343.359 262.5 342.859 261.375C342.391 260.25 342.156 259.047 342.156 257.766V226.312C342.156 225.031 342.391 223.828 342.859 222.703C343.359 221.578 344.016 220.609 344.828 219.797C345.672 218.953 346.656 218.297 347.781 217.828C348.906 217.328 350.094 217.078 351.344 217.078H376.141C377.422 217.078 378.609 217.328 379.703 217.828C380.828 218.297 381.797 218.953 382.609 219.797C383.453 220.609 384.109 221.578 384.578 222.703C385.078 223.828 385.328 225.031 385.328 226.312V257.766ZM351.344 226.312V257.766H376.141V226.312H351.344ZM409.938 197.859V267H400.75V197.859H409.938Z" fill="#364156"/>
<path d="M584.234 238.219C582.922 238.219 581.672 237.969 580.484 237.469C579.328 236.938 578.312 236.25 577.438 235.406C576.562 234.531 575.875 233.516 575.375 232.359C574.875 231.172 574.625 229.922 574.625 228.609V209.391C574.625 208.078 574.875 206.844 575.375 205.688C575.875 204.5 576.562 203.484 577.438 202.641C578.312 201.766 579.328 201.078 580.484 200.578C581.672 200.047 582.922 199.781 584.234 199.781H616.859C618.172 199.781 619.406 200.047 620.562 200.578C621.75 201.078 622.781 201.766 623.656 202.641C624.531 203.484 625.219 204.5 625.719 205.688C626.219 206.844 626.469 208.078 626.469 209.391V218.062H616.859V209.391H584.234V228.609H616.859C618.172 228.609 619.406 228.859 620.562 229.359C621.75 229.859 622.781 230.547 623.656 231.422C624.531 232.297 625.219 233.328 625.719 234.516C626.219 235.672 626.469 236.906 626.469 238.219V257.391C626.469 258.703 626.219 259.953 625.719 261.141C625.219 262.297 624.531 263.312 623.656 264.188C622.781 265.062 621.75 265.75 620.562 266.25C619.406 266.75 618.172 267 616.859 267H583.297C581.984 267 580.734 266.75 579.547 266.25C578.391 265.75 577.375 265.062 576.5 264.188C575.625 263.312 574.938 262.297 574.438 261.141C573.938 259.953 573.688 258.703 573.688 257.391V248.766H583.297V257.391H616.859V238.219H584.234ZM646.25 287.156L656.703 262.5L637.109 217.078H646.812L661.391 251.438L675.969 217.078H685.672L655.438 287.156H646.25ZM725.422 257.766V246.188H703.531C702.25 246.188 701.047 245.953 699.922 245.484C698.797 244.984 697.812 244.328 696.969 243.516C696.156 242.672 695.5 241.688 695 240.562C694.531 239.438 694.297 238.234 694.297 236.953V226.312C694.297 225.031 694.531 223.828 695 222.703C695.5 221.578 696.156 220.609 696.969 219.797C697.812 218.953 698.797 218.297 699.922 217.828C701.047 217.328 702.25 217.078 703.531 217.078H732.734V226.312H703.531V236.953H725.422C726.703 236.953 727.891 237.203 728.984 237.703C730.109 238.172 731.094 238.828 731.938 239.672C732.781 240.484 733.438 241.453 733.906 242.578C734.406 243.703 734.656 244.906 734.656 246.188V257.766C734.656 259.047 734.406 260.25 733.906 261.375C733.438 262.5 732.781 263.484 731.938 264.328C731.094 265.141 730.109 265.797 728.984 266.297C727.891 266.766 726.703 267 725.422 267H694.297V257.766H725.422ZM746.188 217.078H758.375V201.703H767.609V217.078H784.016V226.312H767.609V257.766H784.016V267H767.609C766.359 267 765.172 266.766 764.047 266.297C762.922 265.797 761.938 265.141 761.094 264.328C760.25 263.484 759.578 262.5 759.078 261.375C758.609 260.25 758.375 259.047 758.375 257.766V226.312H746.188V217.078ZM841.672 246.75H808.625V257.766H841.672V267H808.625C807.375 267 806.188 266.766 805.062 266.297C803.938 265.797 802.953 265.141 802.109 264.328C801.297 263.484 800.641 262.5 800.141 261.375C799.672 260.25 799.438 259.047 799.438 257.766V226.312C799.438 225.031 799.672 223.828 800.141 222.703C800.641 221.578 801.297 220.609 802.109 219.797C802.953 218.953 803.938 218.297 805.062 217.828C806.188 217.328 807.375 217.078 808.625 217.078H832.438C833.719 217.078 834.922 217.328 836.047 217.828C837.172 218.297 838.141 218.953 838.953 219.797C839.797 220.609 840.453 221.578 840.922 222.703C841.422 223.828 841.672 225.031 841.672 226.312V246.75ZM808.625 226.312V237.516H832.438V226.312H808.625ZM896.656 226.312V267H887.422V226.312H866.281V267H857.094V217.078H866.281V225.891C866.344 224.672 866.625 223.531 867.125 222.469C867.625 221.375 868.281 220.438 869.094 219.656C869.938 218.844 870.906 218.219 872 217.781C873.094 217.312 874.266 217.078 875.516 217.078H887.422C888.641 217.078 889.797 217.312 890.891 217.781C891.984 218.219 892.953 218.844 893.797 219.656C894.641 220.438 895.312 221.375 895.812 222.469C896.344 223.531 896.625 224.672 896.656 225.891C896.719 224.672 896.984 223.531 897.453 222.469C897.953 221.375 898.609 220.438 899.422 219.656C900.266 218.844 901.234 218.219 902.328 217.781C903.422 217.312 904.594 217.078 905.844 217.078H917.75C919.031 217.078 920.234 217.328 921.359 217.828C922.484 218.297 923.453 218.953 924.266 219.797C925.109 220.609 925.766 221.578 926.234 222.703C926.734 223.828 926.984 225.031 926.984 226.312V267H917.75V226.312H896.656Z" fill="#364156"/>
</svg>
